External Loads File
version=1
nRows=77
nColumns=13
Range=5.000000e-03-10 seconds
endheader
time 	forceRightX 	forceRightY 	forceRightZ 	pointRightX 	pointRightY 	pointRightZ 	forceLeftX 	forceLeftY 	forceLeftZ 	pointLeftX 	pointLeftY 	pointLeftZ 		
7.505000 -42.311665 118.770805 -0.000000 0.334932 0.476357 -0.105676 81.014550 377.340254 -0.000000 0.162621 0.165031 -0.339900
7.510000 -47.065001 123.696276 -0.000000 0.341687 0.470352 -0.105529 72.829890 352.612770 -0.000000 0.154874 0.170454 -0.339816
7.515000 -52.217397 129.669982 -0.000000 0.348130 0.463997 -0.105443 65.673650 335.290075 -0.000000 0.147525 0.176311 -0.339722
7.520000 -57.518362 136.664415 -0.000000 0.354106 0.457049 -0.105335 60.208838 324.211035 -0.000000 0.140488 0.182598 -0.339711
7.525000 -62.707962 144.524269 -0.000000 0.359923 0.449765 -0.105326 56.826241 317.968134 -0.000000 0.133863 0.189299 -0.339751
7.530000 -67.750670 152.929066 -0.000000 0.365170 0.442338 -0.105251 55.333877 315.204834 -0.000000 0.127631 0.196464 -0.339706
7.535000 -72.197194 161.788799 -0.000000 0.369867 0.433882 -0.105202 56.399741 314.560436 -0.000000 0.121792 0.204157 -0.339642
7.540000 -76.412867 170.785504 -0.000000 0.374125 0.425739 -0.105170 59.016287 315.233552 -0.000000 0.116307 0.212241 -0.339657
7.545000 -80.326588 179.929141 -0.000000 0.377909 0.417315 -0.105112 63.048918 316.561850 -0.000000 0.111343 0.220460 -0.339733
7.550000 -83.617173 189.444818 -0.000000 0.381480 0.408569 -0.105153 68.681502 318.053141 -0.000000 0.106723 0.229036 -0.339841
7.555000 -86.498330 199.400212 -0.000000 0.384438 0.399656 -0.105040 75.047646 319.596228 -0.000000 0.102623 0.237840 -0.339831
7.560000 -88.870716 210.043755 -0.000000 0.386948 0.390617 -0.104954 81.737903 321.115716 -0.000000 0.099036 0.246778 -0.339983
7.565000 -90.695926 221.565337 -0.000000 0.388973 0.381433 -0.104869 88.226381 322.648549 -0.000000 0.095979 0.255715 -0.340076
7.570000 -91.853076 234.102933 -0.000000 0.390524 0.372197 -0.104758 94.221975 324.231043 -0.000000 0.093460 0.264791 -0.340236
7.575000 -92.423567 247.621928 -0.000000 0.391622 0.362851 -0.104612 99.325565 325.983768 -0.000000 0.091481 0.273793 -0.340381
7.580000 -92.413323 262.046276 -0.000000 0.392344 0.353522 -0.104564 103.438088 327.990726 -0.000000 0.089946 0.282848 -0.340505
7.585000 -91.820161 277.245683 -0.000000 0.392575 0.344114 -0.104266 106.643608 330.301831 -0.000000 0.089003 0.291995 -0.340648
7.590000 -90.751605 293.022592 -0.000000 0.392475 0.334664 -0.104143 109.062418 332.948255 -0.000000 0.088475 0.301153 -0.340762
7.595000 -89.059812 309.247258 -0.000000 0.392184 0.325084 -0.103935 111.219921 335.787573 -0.000000 0.088505 0.310474 -0.340928
7.600000 -86.866883 325.685900 -0.000000 0.391581 0.315391 -0.103862 113.344439 338.693012 -0.000000 0.088998 0.319903 -0.341066
7.605000 -84.327306 342.094999 -0.000000 0.390681 0.305662 -0.103569 115.586128 341.473486 -0.000000 0.089931 0.329403 -0.341282
7.610000 -81.218270 358.350052 -0.000000 0.389266 0.295880 -0.103788 118.352307 343.795734 -0.000000 0.091411 0.339073 -0.341453
7.615000 -77.515948 374.297603 -0.000000 0.387661 0.286249 -0.103452 121.674612 345.436107 -0.000000 0.093364 0.349038 -0.341681
7.620000 -74.428361 389.551883 -0.000000 0.385628 0.276810 -0.103348 124.369307 346.603685 -0.000000 0.095879 0.358143 -0.341880
7.625000 -70.500231 404.253594 -0.000000 0.383133 0.267498 -0.103251 127.659741 346.648645 -0.000000 0.098762 0.367382 -0.341978
7.630000 -66.078131 418.150229 -0.000000 0.380324 0.258430 -0.103281 131.131556 345.465017 -0.000000 0.102153 0.376520 -0.342242
7.635000 -61.588430 431.037593 -0.000000 0.377353 0.249628 -0.103215 134.430609 342.903977 -0.000000 0.105899 0.385477 -0.342286
7.640000 -56.707911 442.969243 -0.000000 0.373936 0.240912 -0.102920 137.883129 338.563197 -0.000000 0.110162 0.394347 -0.342557
7.645000 -52.233920 454.070091 -0.000000 0.370172 0.232462 -0.102745 140.918731 332.483465 -0.000000 0.114773 0.403109 -0.342723
7.650000 -48.494484 464.776534 -0.000000 0.366042 0.224211 -0.102517 143.296733 324.771656 -0.000000 0.119714 0.411723 -0.342870
7.655000 -45.630134 475.720720 -0.000000 0.361525 0.216165 -0.102318 144.853367 315.753685 -0.000000 0.125105 0.420138 -0.343089
7.660000 -43.966866 487.597790 -0.000000 0.356641 0.208354 -0.102078 145.271441 306.078026 -0.000000 0.130679 0.428318 -0.343405
7.665000 -43.036912 501.110826 -0.000000 0.351352 0.200865 -0.101951 144.712089 296.356095 -0.000000 0.136834 0.436052 -0.343453
7.670000 -41.401649 516.790455 -0.000000 0.345548 0.193695 -0.101826 143.783298 287.047450 -0.000000 0.143247 0.444377 -0.344151
7.675000 -40.362665 534.565896 -0.000000 0.339328 0.187026 -0.101644 141.471324 279.371569 -0.000000 0.149842 0.451749 -0.344708
7.680000 -38.359652 554.185982 -0.000000 0.332695 0.180788 -0.101528 138.386908 273.556662 -0.000000 0.156653 0.458890 -0.344599
7.685000 -35.277897 574.871409 -0.000000 0.325641 0.175023 -0.101232 134.370271 269.912572 -0.000000 0.163598 0.465368 -0.344767
7.690000 -30.436726 595.513156 -0.000000 0.318279 0.169765 -0.101336 129.632918 268.201093 -0.000000 0.170836 0.471295 -0.344811
7.695000 -24.589540 614.656941 -0.000000 0.310756 0.165123 -0.101359 123.843072 268.079322 -0.000000 0.177934 0.476580 -0.344825
7.700000 -15.763548 630.832378 -0.000000 0.302933 0.161238 -0.101266 117.962819 268.328151 -0.000000 0.185871 0.481376 -0.344752
7.705000 -5.953054 642.435872 -0.000000 0.294996 0.157653 -0.101113 111.293221 268.405268 -0.000000 0.193574 0.485605 -0.344740
7.710000 4.732522 648.143310 -0.000000 0.286955 0.154782 -0.101123 104.022455 267.417124 -0.000000 0.201362 0.489132 -0.344653
7.715000 16.189948 646.925415 -0.000000 0.278858 0.152556 -0.100997 96.366692 264.648587 -0.000000 0.209400 0.491984 -0.344771
7.720000 27.187820 638.174419 -0.000000 0.270696 0.150718 -0.100940 88.115334 259.774563 -0.000000 0.217151 0.494454 -0.344751
7.725000 37.546779 621.741056 -0.000000 0.262522 0.149480 -0.100734 79.524687 252.535335 -0.000000 0.224928 0.496401 -0.344805
7.730000 46.674858 597.977801 -0.000000 0.254453 0.148771 -0.100616 70.689616 242.962230 -0.000000 0.232770 0.497699 -0.344798
7.735000 54.088592 567.675399 -0.000000 0.246451 0.148424 -0.100445 61.726465 231.279577 -0.000000 0.240552 0.498552 -0.344672
7.740000 59.445215 531.986485 -0.000000 0.238609 0.148513 -0.100361 52.761886 217.862601 -0.000000 0.248339 0.498928 -0.344889
7.745000 62.499030 492.381488 -0.000000 0.230847 0.149021 -0.100163 43.890707 203.192379 -0.000000 0.255970 0.498827 -0.345051
7.750000 63.354552 450.559464 -0.000000 0.223253 0.150129 -0.099998 35.255963 187.785945 -0.000000 0.263572 0.498291 -0.345233
7.755000 62.208789 408.367557 -0.000000 0.215750 0.151435 -0.099801 26.923256 172.187227 -0.000000 0.271158 0.497396 -0.345269
7.760000 59.236562 367.674554 -0.000000 0.208330 0.153206 -0.099671 18.822324 156.946773 -0.000000 0.278579 0.495946 -0.345507
7.765000 54.918308 330.182248 -0.000000 0.201012 0.155404 -0.099526 10.893123 142.584154 -0.000000 0.285961 0.494043 -0.345696
7.770000 49.676575 297.388996 -0.000000 0.193858 0.157957 -0.099369 2.949152 129.600063 -0.000000 0.293290 0.491474 -0.345777
7.775000 43.977374 270.527566 -0.000000 0.186728 0.160918 -0.099253 -5.254162 118.456051 -0.000000 0.300474 0.488608 -0.345802
7.780000 38.354967 250.531686 -0.000000 0.179875 0.164363 -0.098958 -13.959125 109.568120 -0.000000 0.307687 0.485199 -0.345980
7.785000 33.347388 238.012471 -0.000000 0.173134 0.168330 -0.098730 -23.368508 103.313217 -0.000000 0.314779 0.481312 -0.346087
7.790000 29.566048 233.202709 -0.000000 0.166188 0.172542 -0.098954 -33.559235 100.066951 -0.000000 0.321706 0.477013 -0.346141
7.795000 27.240776 235.945668 -0.000000 0.159667 0.177137 -0.098883 -44.623568 100.153773 -0.000000 0.328465 0.472188 -0.346187
7.800000 26.823631 245.521208 -0.000000 0.153384 0.181932 -0.098853 -56.325883 103.866383 -0.000000 0.334985 0.466954 -0.346263
7.805000 28.398423 260.662031 -0.000000 0.147500 0.186967 -0.098901 -68.273460 111.278715 -0.000000 0.341118 0.461457 -0.346270
7.810000 31.803400 279.603153 -0.000000 0.142100 0.192123 -0.098910 -79.862282 122.153083 -0.000000 0.346686 0.455786 -0.346114
7.815000 36.895465 300.290035 -0.000000 0.137181 0.197273 -0.098726 -90.270968 135.991319 -0.000000 0.351978 0.450178 -0.346277
7.820000 42.613233 320.847157 -0.000000 0.132937 0.202327 -0.098681 -99.069730 151.830339 -0.000000 0.356433 0.444807 -0.346265
7.825000 48.604126 339.731395 -0.000000 0.129220 0.207257 -0.098818 -105.708074 168.869418 -0.000000 0.360155 0.439584 -0.346135
7.830000 54.338923 356.051213 -0.000000 0.125889 0.211999 -0.098484 -110.053792 186.354835 -0.000000 0.363309 0.434696 -0.346090
7.835000 59.154984 369.611924 -0.000000 0.123072 0.216568 -0.098510 -112.463131 203.648664 -0.000000 0.365859 0.430187 -0.346005
7.840000 63.366643 380.621460 -0.000000 0.120543 0.220944 -0.098391 -113.177550 220.521177 -0.000000 0.367986 0.425678 -0.345974
7.845000 66.901945 389.700201 -0.000000 0.118289 0.225218 -0.098359 -112.962167 236.670642 -0.000000 0.369692 0.421298 -0.345926
7.850000 70.123770 397.529014 -0.000000 0.116279 0.229422 -0.098261 -112.485432 251.976700 -0.000000 0.371190 0.417000 -0.345887
7.855000 73.482518 404.666388 -0.000000 0.114456 0.233555 -0.098240 -112.281736 266.370959 -0.000000 0.372653 0.412637 -0.345903
7.860000 77.007614 411.412481 -0.000000 0.112828 0.237605 -0.098226 -112.905300 279.611505 -0.000000 0.374035 0.408224 -0.345880
7.865000 81.024299 417.541798 -0.000000 0.111406 0.241674 -0.098318 -114.391755 291.416573 -0.000000 0.375501 0.403678 -0.345976
7.870000 85.578205 422.451772 -0.000000 0.109799 0.245767 -0.098325 -116.684961 301.318232 -0.000000 0.376906 0.399034 -0.346013
7.875000 90.640978 425.344172 -0.000000 0.108367 0.250124 -0.098396 -119.627347 308.821670 -0.000000 0.378376 0.394263 -0.346003
7.880000 96.665846 425.360035 -0.000000 0.106203 0.254717 -0.099360 -122.674006 313.706557 -0.000000 0.379936 0.389301 -0.346007
7.885000 102.712176 422.177488 -0.000000 0.104882 0.259678 -0.099426 -126.333662 315.599975 -0.000000 0.381550 0.384041 -0.346048
